<?xml version="1.0" standalone="no"?>
<!DOCTYPE svg PUBLIC "-//W3C//DTD SVG 20010904//EN"
 "http://www.w3.org/TR/2001/REC-SVG-20010904/DTD/svg10.dtd">
<svg version="1.0" xmlns="http://www.w3.org/2000/svg"
 width="1801.000000pt" height="1801.000000pt" viewBox="0 0 1801.000000 1801.000000"
 preserveAspectRatio="xMidYMid meet">
<metadata>
Created by potrace 1.14, written by Peter Selinger 2001-2017
</metadata>
<g transform="translate(0.000000,1801.000000) scale(0.100000,-0.100000)"
fill="#000000" stroke="none">
<path d="M9030 16435 c0 -10 -23 -40 -80 -102 -16 -18 -27 -33 -24 -33 3 0 -7
-13 -23 -30 -37 -38 -53 -58 -53 -64 0 -5 -33 -45 -72 -87 -16 -16 -28 -34
-28 -39 0 -6 -4 -10 -10 -10 -5 0 -10 -5 -10 -10 0 -6 -13 -24 -30 -41 -16
-18 -27 -35 -24 -40 3 -5 -2 -9 -10 -9 -8 0 -18 -5 -22 -12 -5 -7 -2 -8 7 -3
8 4 1 -7 -16 -26 -16 -19 -33 -35 -37 -37 -5 -2 -8 -10 -8 -18 0 -7 -9 -19
-20 -26 -11 -7 -20 -19 -20 -26 0 -7 -7 -15 -15 -18 -8 -4 -15 -12 -15 -20 0
-7 -6 -17 -13 -21 -6 -4 -25 -26 -40 -49 -15 -22 -37 -51 -50 -65 -12 -13 -22
-26 -22 -29 0 -5 -28 -40 -53 -66 -7 -8 -10 -14 -5 -14 4 -1 -3 -10 -16 -20
-13 -11 -20 -20 -15 -20 4 0 -1 -8 -12 -19 -10 -10 -28 -31 -39 -47 -11 -15
-28 -36 -37 -46 -10 -10 -15 -18 -10 -18 4 -1 -4 -10 -17 -20 -13 -11 -20 -20
-16 -20 3 0 0 -7 -7 -15 -20 -22 -31 -37 -58 -75 -13 -19 -29 -40 -35 -46 -5
-6 -17 -22 -25 -34 -8 -13 -23 -30 -32 -39 -10 -8 -18 -21 -18 -27 0 -7 -7
-15 -16 -18 -8 -3 -13 -10 -10 -14 3 -5 -3 -15 -12 -24 -22 -19 -52 -57 -52
-64 0 -5 -22 -38 -82 -118 -21 -28 -38 -57 -38 -64 0 -7 -4 -11 -8 -8 -5 3
-15 -5 -23 -16 -8 -12 -21 -29 -30 -38 -9 -10 -18 -21 -20 -26 -14 -30 -53
-84 -61 -84 -5 0 -7 -4 -4 -8 3 -5 -6 -20 -20 -35 -13 -14 -24 -31 -24 -37 0
-5 -5 -10 -11 -10 -5 0 -7 -4 -4 -10 3 -5 -1 -10 -9 -10 -9 0 -15 -4 -14 -8 2
-5 -8 -24 -22 -42 -14 -18 -24 -35 -24 -39 1 -3 -7 -12 -18 -19 -10 -7 -16
-18 -13 -23 4 -5 -1 -12 -9 -15 -9 -3 -14 -10 -11 -14 3 -4 -2 -10 -10 -14 -8
-3 -15 -10 -15 -16 0 -6 -11 -23 -25 -38 -14 -15 -25 -30 -25 -35 0 -8 -11
-23 -42 -58 -10 -10 -19 -25 -20 -31 -2 -7 -13 -23 -25 -34 -12 -12 -19 -24
-16 -27 3 -3 -4 -12 -16 -19 -12 -7 -21 -16 -21 -20 0 -4 -19 -35 -42 -68 -24
-34 -51 -75 -62 -93 -10 -18 -21 -34 -25 -37 -10 -8 -78 -114 -79 -123 0 -5
-12 -19 -27 -33 -14 -13 -20 -24 -13 -24 8 0 6 -5 -5 -11 -9 -5 -23 -22 -31
-37 -8 -15 -23 -38 -35 -51 -11 -13 -18 -27 -16 -31 3 -4 -2 -11 -11 -14 -9
-4 -14 -9 -10 -13 3 -3 -3 -13 -14 -20 -11 -8 -18 -18 -16 -22 3 -4 -8 -22
-23 -39 -16 -17 -26 -33 -23 -36 3 -3 0 -6 -7 -6 -7 0 -10 -4 -6 -9 3 -5 -4
-16 -15 -24 -11 -7 -18 -16 -15 -19 3 -3 -6 -17 -19 -31 -14 -15 -23 -27 -20
-27 2 0 -12 -23 -32 -51 -20 -28 -30 -48 -22 -45 7 4 3 -1 -9 -10 -13 -9 -23
-21 -23 -26 0 -5 -12 -25 -26 -44 -15 -19 -23 -34 -18 -34 5 0 -2 -7 -14 -16
-12 -8 -20 -19 -17 -24 3 -5 -2 -13 -11 -18 -9 -5 -16 -13 -16 -18 -2 -19 -55
-94 -62 -87 -4 5 -6 4 -5 -2 4 -15 -11 -55 -21 -55 -8 0 -23 -38 -21 -52 1 -5
-4 -7 -11 -5 -7 1 -12 -2 -13 -8 -1 -10 -34 -66 -45 -75 -7 -6 -17 -30 -18
-43 0 -5 -7 -14 -15 -20 -8 -7 -23 -28 -33 -47 -11 -19 -24 -40 -31 -47 -6 -7
-17 -26 -25 -43 -7 -16 -16 -30 -19 -30 -4 0 -12 -13 -19 -30 -7 -16 -16 -30
-21 -30 -5 0 -9 -5 -9 -11 0 -6 -9 -24 -21 -40 -11 -16 -18 -29 -14 -29 3 0
-3 -10 -15 -22 -11 -12 -20 -28 -20 -35 0 -7 -3 -13 -7 -13 -5 0 -13 -10 -19
-23 -19 -38 -49 -92 -55 -97 -12 -11 -54 -86 -51 -92 1 -5 -2 -8 -7 -8 -5 0
-13 -9 -16 -21 -4 -11 -20 -40 -36 -64 -16 -24 -29 -46 -29 -51 0 -4 -10 -19
-22 -32 -13 -14 -16 -22 -8 -17 8 4 5 -2 -7 -14 -13 -12 -23 -28 -23 -36 0 -8
-4 -15 -10 -15 -5 0 -10 -9 -10 -20 0 -11 -3 -20 -7 -20 -5 0 -24 -29 -42 -65
-19 -36 -39 -65 -44 -65 -4 0 -6 -4 -2 -9 3 -5 -1 -16 -9 -24 -8 -8 -12 -17
-9 -21 4 -3 2 -6 -3 -6 -6 0 -16 -16 -24 -35 -8 -19 -18 -35 -22 -35 -5 0 -6
-4 -3 -10 3 -5 2 -10 -2 -10 -5 0 -16 -17 -26 -37 -17 -38 -37 -73 -47 -83 -3
-3 -6 -12 -8 -20 -2 -8 -8 -16 -13 -18 -5 -2 -9 -8 -9 -14 0 -6 -10 -27 -22
-47 -12 -19 -23 -42 -24 -49 -2 -8 -9 -21 -17 -30 -8 -10 -29 -46 -48 -82 -19
-36 -38 -68 -44 -72 -5 -4 -6 -8 -1 -8 5 0 2 -7 -5 -16 -7 -9 -14 -23 -15 -32
-2 -8 -8 -18 -14 -22 -7 -4 -12 -10 -11 -13 0 -11 -31 -82 -38 -87 -9 -6 -25
-43 -23 -52 1 -5 -2 -8 -6 -8 -10 0 -37 -50 -34 -62 1 -5 -3 -8 -9 -8 -5 0 -7
-4 -4 -10 3 -5 1 -10 -4 -10 -6 0 -10 -3 -9 -7 1 -5 -6 -20 -16 -35 -10 -15
-15 -32 -11 -38 3 -5 2 -10 -4 -10 -10 0 -117 -210 -113 -222 1 -5 -3 -8 -9
-8 -5 0 -8 -4 -5 -9 3 -5 -1 -14 -9 -21 -8 -7 -15 -19 -15 -26 0 -8 -4 -14 -8
-14 -4 0 -8 -9 -9 -20 -1 -11 -11 -34 -23 -50 -12 -17 -19 -30 -15 -30 3 0 -5
-20 -19 -44 -13 -24 -22 -47 -19 -50 4 -3 1 -6 -5 -6 -7 0 -12 -4 -12 -9 0 -5
-10 -30 -22 -57 -12 -27 -21 -52 -20 -56 1 -5 -3 -8 -9 -8 -5 0 -7 -4 -4 -10
3 -5 1 -10 -4 -10 -6 0 -11 -9 -11 -20 0 -11 -5 -20 -11 -20 -5 0 -7 -4 -4
-10 3 -5 2 -10 -4 -10 -6 0 -8 -7 -5 -15 4 -8 2 -15 -4 -15 -8 0 -17 -23 -25
-60 0 -3 -7 -11 -14 -18 -7 -8 -11 -18 -7 -23 3 -5 -1 -12 -10 -15 -8 -3 -12
-12 -9 -20 3 -8 0 -14 -7 -14 -6 0 -9 -4 -5 -9 3 -5 0 -15 -7 -23 -13 -14 -20
-33 -21 -55 0 -7 -4 -13 -9 -13 -4 0 -8 -9 -8 -21 0 -11 -4 -18 -9 -14 -6 3
-8 -4 -6 -15 2 -11 0 -20 -4 -20 -8 0 -19 -30 -28 -75 -2 -10 -7 -22 -11 -25
-4 -3 -8 -25 -9 -50 -3 -91 -3 -91 -15 -84 -8 5 -8 1 1 -10 13 -15 13 -19 0
-27 -12 -7 -7 -12 11 -11 3 0 4 -26 3 -59 -1 -32 3 -61 8 -64 5 -4 9 -17 9
-31 0 -13 5 -24 10 -24 6 0 10 -8 10 -19 0 -10 6 -24 14 -30 8 -7 18 -26 21
-42 4 -16 11 -27 16 -23 5 3 9 -2 9 -10 0 -9 5 -16 10 -16 6 0 10 -5 10 -11 0
-6 19 -27 42 -47 22 -20 51 -47 63 -59 13 -12 26 -19 29 -16 3 3 8 -2 12 -11
3 -9 10 -13 15 -10 5 3 12 -2 15 -10 3 -9 10 -13 15 -10 5 2 19 -1 31 -8 26
-14 30 -15 59 -17 13 -1 18 -5 13 -13 -5 -10 -4 -10 6 -1 9 8 19 9 32 2 13 -7
18 -6 18 3 0 9 3 9 10 -2 5 -8 24 -15 42 -15 18 0 39 -4 46 -8 7 -5 12 -3 12
5 0 10 2 10 9 -1 5 -7 13 -11 19 -7 6 3 13 0 15 -6 4 -10 8 -9 16 2 6 8 11 10
11 4 0 -6 16 -10 35 -9 19 1 35 -1 35 -4 0 -4 9 -7 20 -8 13 -1 18 2 13 10 -5
9 -3 9 8 1 8 -6 24 -10 37 -9 12 1 22 -3 22 -8 0 -5 6 -4 13 2 8 6 17 8 21 4
3 -4 33 -6 66 -5 33 0 62 -3 65 -9 4 -5 12 -6 18 -2 19 12 61 11 69 -1 5 -7 8
-7 8 -1 0 12 59 14 78 2 6 -5 12 -4 12 1 0 11 49 10 66 0 6 -4 14 -4 18 -1 4
4 30 8 59 8 29 1 58 5 64 8 7 4 14 3 18 -3 4 -6 12 -7 18 -3 7 4 23 9 37 10
14 1 43 4 65 6 22 2 51 8 64 12 18 5 22 4 17 -6 -5 -9 -2 -8 6 1 7 9 28 15 50
15 20 0 34 3 32 7 -3 4 7 8 23 9 15 0 37 3 48 5 11 2 30 6 43 8 12 1 25 5 28
9 3 3 12 3 20 0 8 -3 14 -1 14 5 0 5 13 9 30 8 16 -1 31 2 32 6 3 9 26 15 56
17 7 1 11 5 8 10 -3 4 6 7 20 5 15 -1 28 4 31 12 3 8 9 11 14 8 5 -2 17 0 28
6 11 5 31 11 45 12 15 1 26 6 26 11 0 4 6 7 13 5 6 -1 23 4 37 12 14 7 25 12
25 11 0 -1 14 3 30 9 17 6 38 12 47 13 9 1 15 4 12 8 -4 7 23 20 53 25 7 1 26
12 43 24 16 12 30 19 30 15 0 -3 10 0 23 7 12 7 25 11 30 10 4 -1 7 2 7 8 0 5
18 14 40 20 22 6 40 15 40 19 0 8 38 23 63 25 4 1 11 6 15 11 4 6 12 10 17 10
6 0 34 13 62 28 29 15 55 27 58 27 22 0 26 1 21 8 -3 5 1 9 8 9 8 0 31 8 52
18 22 11 44 20 50 21 6 1 28 9 47 19 20 9 41 13 48 9 7 -4 9 -3 6 3 -6 10 37
29 56 25 4 -1 7 3 7 9 0 5 4 8 9 4 5 -3 12 -1 16 5 4 6 11 8 16 5 5 -4 9 -1 9
5 0 6 4 9 9 5 5 -3 12 -1 15 4 3 4 20 12 38 16 18 4 36 9 41 10 4 1 12 3 18 4
5 0 7 6 3 13 -4 7 -3 8 4 4 6 -4 27 0 47 8 39 17 36 16 66 16 11 0 18 4 15 8
-2 4 5 9 17 10 58 4 73 8 80 20 7 10 12 10 23 1 11 -9 14 -9 14 1 0 7 7 10 15
7 8 -4 17 -2 20 3 3 5 12 7 20 3 8 -3 15 -1 15 4 0 5 20 8 45 8 26 -1 45 3 45
9 0 8 3 8 8 1 8 -12 22 -13 40 -2 7 5 12 4 12 -3 0 -7 6 -8 18 -1 11 6 24 6
35 0 12 -7 17 -6 17 1 0 7 5 8 13 3 6 -4 24 -8 38 -9 38 -2 81 -42 69 -64 -5
-10 -7 -20 -3 -23 3 -4 -2 -10 -12 -13 -21 -8 -77 -59 -207 -185 -48 -47 -88
-84 -88 -82 0 2 -13 -9 -28 -24 -16 -15 -27 -31 -25 -35 2 -5 0 -8 -5 -8 -9 0
-140 -126 -141 -136 -2 -10 -40 -42 -45 -36 -3 3 -6 -1 -6 -8 0 -7 -10 -23
-22 -35 -41 -39 -76 -84 -70 -90 3 -3 0 -5 -7 -5 -12 0 -49 -39 -48 -50 1 -5
-25 -39 -50 -65 -7 -8 -13 -18 -13 -23 0 -6 -7 -12 -15 -16 -8 -3 -15 -15 -15
-26 0 -11 -6 -23 -14 -26 -8 -3 -12 -12 -9 -20 3 -7 -2 -17 -11 -20 -9 -3 -13
-10 -10 -15 3 -6 1 -15 -4 -22 -6 -7 -12 -24 -14 -37 -2 -14 -6 -29 -10 -35
-8 -14 -3 -138 7 -154 6 -10 4 -12 -4 -6 -8 4 -7 -4 4 -24 9 -17 13 -36 10
-41 -3 -6 -1 -10 4 -10 6 0 10 -3 10 -7 -3 -13 25 -73 33 -73 4 0 8 -7 8 -15
0 -8 5 -15 10 -15 6 0 10 -5 10 -11 0 -16 26 -39 35 -31 5 4 5 2 1 -5 -4 -7 6
-24 25 -40 18 -15 38 -34 45 -40 7 -7 15 -13 19 -13 4 0 13 -6 20 -12 34 -30
45 -37 100 -63 32 -14 73 -28 90 -29 18 -2 38 -7 45 -11 16 -10 236 -10 295 0
22 3 54 8 70 10 45 6 59 10 74 19 10 7 12 5 6 -3 -5 -8 3 -7 23 3 16 8 32 12
35 9 4 -3 12 -1 19 5 7 5 24 12 38 14 14 1 31 9 38 16 8 7 17 10 22 7 5 -3 29
6 54 19 25 13 46 22 46 19 0 -4 8 0 18 8 30 25 79 49 86 42 3 -3 6 -1 6 6 0 6
11 16 25 21 14 5 25 14 25 20 0 6 4 8 10 5 5 -3 17 3 27 15 10 11 21 20 26 20
8 0 12 3 58 43 14 12 41 33 59 47 19 14 42 33 52 43 10 9 20 16 23 15 2 -2 13
5 24 14 16 14 186 108 194 107 1 0 15 4 30 10 16 6 32 9 37 6 5 -3 12 0 16 6
5 8 3 9 -7 4 -8 -5 -11 -4 -6 0 4 5 17 10 30 11 35 4 91 14 107 21 20 8 51 7
71 -1 8 -4 33 -8 55 -10 21 -2 47 -7 57 -11 10 -4 21 -5 24 -2 3 4 15 1 27 -5
11 -7 29 -12 39 -13 11 -1 22 -6 25 -11 4 -5 16 -11 27 -13 11 -1 29 -8 40
-14 11 -6 23 -10 28 -9 4 1 7 -2 7 -7 0 -5 14 -14 30 -21 17 -7 30 -17 30 -23
0 -6 3 -7 7 -4 3 4 12 2 20 -4 7 -6 13 -8 13 -3 0 4 6 0 13 -9 6 -9 19 -17 27
-19 14 -3 29 -12 55 -36 7 -6 18 -12 24 -12 6 0 15 -9 21 -20 6 -11 17 -20 25
-20 8 0 20 -9 27 -20 7 -11 19 -20 26 -20 7 0 10 -4 7 -10 -3 -5 0 -10 8 -10
7 0 23 -9 35 -20 12 -12 22 -19 22 -16 0 3 12 -6 28 -19 57 -52 69 -60 95 -73
17 -7 25 -17 21 -24 -4 -6 -3 -8 3 -5 6 4 23 -5 37 -18 15 -14 31 -25 35 -25
4 0 21 -11 37 -25 16 -14 44 -35 62 -46 17 -11 32 -25 32 -30 0 -6 5 -7 10 -4
6 3 10 2 10 -3 0 -5 13 -15 30 -22 16 -7 27 -16 24 -21 -3 -5 2 -9 11 -9 9 0
22 -6 29 -12 7 -7 25 -22 40 -33 16 -11 34 -25 41 -32 7 -7 15 -9 19 -6 3 4 6
1 6 -5 0 -7 7 -12 16 -12 8 0 13 -3 10 -8 -2 -4 13 -16 35 -26 21 -11 39 -26
39 -33 0 -8 4 -12 8 -9 5 3 20 -6 35 -20 15 -13 29 -24 32 -24 21 1 25 -1 20
-10 -3 -5 1 -10 9 -10 9 0 16 -4 16 -10 0 -5 7 -10 15 -10 8 0 15 -4 15 -10 0
-5 7 -10 16 -10 8 0 12 -4 9 -10 -3 -5 -2 -10 4 -10 15 0 161 -146 154 -154
-4 -3 -2 -6 4 -6 14 0 35 -49 27 -62 -4 -7 -2 -8 4 -4 8 5 12 0 12 -13 0 -11
5 -23 10 -26 6 -4 7 -11 4 -17 -4 -6 -7 -30 -8 -54 -1 -24 -7 -49 -13 -55 -6
-6 -9 -18 -6 -26 3 -8 1 -18 -5 -22 -5 -3 -12 -15 -14 -26 -1 -11 -22 -39 -44
-62 -23 -23 -39 -44 -37 -47 3 -2 -12 -10 -31 -17 -20 -7 -36 -17 -36 -21 0
-4 -11 -8 -24 -8 -14 0 -27 -4 -30 -9 -3 -5 -24 -8 -46 -7 -22 0 -40 -2 -40
-6 0 -4 -11 -3 -24 2 -13 5 -27 6 -30 3 -3 -3 -12 -1 -19 5 -8 7 -17 9 -20 5
-4 -3 -7 -1 -7 5 0 6 -7 9 -15 6 -8 -4 -15 -2 -15 3 0 5 -16 15 -35 23 -19 8
-35 17 -35 22 0 4 -5 8 -10 8 -11 0 -24 10 -61 42 -10 10 -23 18 -29 18 -5 0
-13 6 -17 13 -4 8 -28 28 -52 45 -24 18 -40 32 -35 32 5 1 -3 8 -18 16 -16 8
-28 19 -28 24 0 6 -6 10 -14 10 -8 0 -22 10 -30 22 -9 12 -16 19 -16 15 0 -4
-9 1 -19 11 -54 50 -82 72 -90 72 -5 0 -12 7 -15 16 -4 9 -9 14 -13 11 -3 -4
-18 7 -33 23 -16 17 -33 30 -40 30 -6 0 -8 5 -5 10 3 6 -3 10 -14 10 -12 0
-21 5 -21 10 0 6 -8 10 -17 10 -9 0 -14 3 -10 6 7 8 -17 34 -32 34 -6 0 -11 5
-11 10 0 6 -8 10 -18 10 -10 0 -22 3 -26 7 -13 14 -44 12 -50 -2 -3 -8 -13
-15 -23 -15 -10 0 -14 -4 -8 -8 6 -4 10 -13 11 -19 1 -7 2 -25 3 -39 0 -14 5
-22 11 -19 6 3 10 -2 10 -13 0 -10 14 -31 30 -45 17 -15 30 -31 30 -35 0 -4
14 -13 30 -20 17 -8 28 -17 26 -21 -3 -4 9 -13 25 -20 16 -7 27 -17 23 -22 -3
-5 -1 -9 4 -9 8 0 61 -45 150 -130 17 -17 32 -28 32 -25 0 3 15 -10 34 -30 19
-19 39 -35 45 -35 6 0 11 -7 11 -17 0 -9 3 -13 7 -10 9 9 34 -13 27 -24 -3 -5
4 -9 16 -9 12 0 18 -4 15 -10 -3 -5 -3 -10 2 -10 4 0 28 -18 53 -40 25 -22 49
-40 53 -40 5 0 5 -4 2 -10 -3 -5 -2 -10 3 -10 10 0 82 -65 82 -75 0 -3 11 -22
23 -43 13 -20 23 -47 22 -60 -1 -12 2 -22 6 -22 9 0 -1 -41 -15 -59 -9 -12 -8
-13 3 -6 11 6 12 5 5 -6 -4 -8 -9 -20 -11 -28 -1 -8 -6 -17 -11 -20 -5 -3 -12
-16 -16 -28 -4 -13 -12 -23 -17 -23 -5 0 -9 -7 -9 -15 0 -8 -4 -15 -9 -15 -4
0 -19 -10 -32 -22 -14 -13 -29 -25 -34 -27 -6 -2 -20 -10 -32 -18 -12 -8 -28
-16 -36 -17 -8 -1 -23 -8 -33 -16 -10 -9 -15 -10 -10 -3 9 16 -55 5 -66 -11
-5 -7 -8 -7 -8 -1 0 9 -21 15 -67 18 -7 0 -13 4 -13 9 0 5 -4 7 -9 3 -5 -3
-15 0 -23 7 -7 7 -19 14 -26 16 -15 3 -74 42 -83 55 -3 5 -9 8 -13 8 -20 -3
-26 0 -21 9 3 6 -1 10 -9 10 -8 0 -22 10 -30 22 -9 12 -16 19 -16 15 0 -4 -8
1 -18 11 -11 9 -17 20 -15 25 3 4 1 7 -4 6 -20 -3 -34 2 -28 11 3 6 1 10 -5
10 -6 0 -17 6 -25 13 -23 22 -55 47 -60 47 -5 0 -37 25 -60 48 -8 6 -16 12
-20 12 -13 0 -77 49 -152 119 -24 22 -43 37 -43 34 0 -5 -52 35 -81 62 -9 8
-21 15 -27 15 -7 0 -12 5 -12 11 0 5 -4 7 -10 4 -5 -3 -10 1 -10 10 0 9 -4 13
-10 10 -5 -3 -10 -2 -10 3 0 4 -16 14 -35 22 -19 7 -32 17 -30 21 3 3 -9 12
-25 19 -17 7 -30 17 -30 23 0 6 -3 7 -7 4 -3 -4 -17 0 -31 9 -13 8 -30 13 -37
10 -7 -2 -16 -2 -19 2 -12 12 -35 10 -47 -4 -7 -8 -9 -17 -6 -21 4 -3 2 -14
-4 -24 -5 -11 -6 -19 -2 -19 4 0 19 -17 33 -38 14 -20 34 -44 45 -52 11 -8 33
-27 49 -42 16 -15 33 -25 39 -21 5 3 7 2 4 -4 -4 -5 5 -16 18 -23 14 -7 25
-17 25 -22 0 -4 6 -8 14 -8 8 0 16 -3 18 -7 5 -12 85 -73 95 -73 5 0 15 -9 23
-20 8 -11 20 -20 28 -20 7 0 15 -7 18 -15 4 -8 10 -12 15 -9 5 3 9 1 9 -3 0
-5 12 -16 28 -25 15 -10 50 -37 77 -62 28 -25 54 -46 58 -46 5 0 5 -4 2 -10
-3 -6 1 -10 10 -10 9 0 13 -4 10 -10 -6 -9 8 -14 28 -11 5 1 6 -3 3 -8 -4 -5
0 -13 7 -18 21 -13 68 -79 60 -86 -3 -4 -1 -7 6 -7 7 0 9 -4 6 -10 -3 -5 -1
-10 5 -10 6 0 9 -4 5 -9 -3 -5 -1 -12 4 -15 12 -8 6 -99 -7 -104 -6 -2 -8 -10
-5 -18 3 -7 -2 -17 -11 -20 -9 -3 -13 -10 -10 -15 3 -5 1 -9 -4 -9 -5 0 -28
-18 -50 -39 -22 -22 -43 -37 -45 -34 -3 2 -10 -5 -17 -16 -6 -12 -15 -19 -19
-16 -5 3 -11 -2 -15 -10 -3 -8 -15 -15 -26 -15 -11 0 -20 -5 -20 -11 0 -5 -4
-7 -10 -4 -5 3 -10 1 -10 -4 0 -6 -3 -10 -7 -9 -5 1 -24 -4 -43 -11 -40 -16
-37 -16 -69 -6 -18 6 -22 4 -16 -6 5 -9 1 -8 -11 2 -10 9 -27 15 -36 14 -9 -2
-22 3 -29 11 -6 8 -15 11 -20 8 -5 -3 -9 0 -9 6 0 6 -4 8 -10 5 -5 -3 -10 -2
-10 4 0 5 -9 13 -20 16 -11 4 -18 11 -14 16 3 5 1 8 -4 7 -10 -3 -53 26 -88
59 -13 13 -25 23 -28 23 -6 0 -38 25 -70 55 -11 11 -41 36 -66 55 -49 38 -62
50 -133 115 -26 24 -50 44 -53 44 -3 -1 -24 15 -46 35 -22 20 -42 36 -44 36
-3 0 -15 9 -27 21 -12 11 -42 33 -67 49 -25 16 -51 34 -57 40 -7 6 -15 10 -18
10 -3 0 -8 0 -12 1 -58 8 -106 -25 -95 -65 8 -27 39 -72 66 -95 10 -9 33 -30
51 -48 18 -17 36 -29 39 -26 3 4 6 0 6 -9 0 -8 12 -21 27 -29 15 -8 36 -23 48
-34 49 -47 95 -85 95 -80 0 4 40 -34 90 -83 49 -49 92 -87 95 -84 3 3 5 -2 5
-11 0 -10 5 -17 10 -17 6 0 10 -7 10 -15 0 -8 5 -15 10 -15 6 0 10 -11 10 -25
0 -14 5 -25 10 -25 6 0 3 -11 -6 -25 -9 -14 -13 -25 -10 -25 4 0 -23 -29 -59
-65 -36 -36 -68 -65 -71 -65 -3 0 -19 -9 -35 -21 -16 -11 -29 -17 -29 -14 0 4
-11 0 -25 -9 -14 -9 -30 -14 -35 -11 -6 3 -10 2 -10 -2 0 -5 -12 -8 -27 -7
-16 1 -34 -3 -40 -9 -9 -6 -13 -6 -13 3 0 10 -3 10 -15 0 -8 -7 -15 -9 -15 -4
0 5 -21 10 -46 11 -26 2 -53 8 -60 14 -8 6 -14 9 -14 5 0 -3 -15 0 -34 8 -19
8 -37 12 -40 8 -3 -3 -6 0 -6 6 0 9 -27 23 -50 27 -19 2 -98 50 -95 56 3 4 -4
5 -15 2 -11 -3 -20 0 -20 6 0 6 -5 11 -10 11 -19 0 -52 37 -41 45 6 3 9 10 6
15 -3 4 2 11 11 14 8 3 13 10 10 15 -3 5 1 14 9 21 8 7 15 20 15 30 0 10 7 23
15 30 8 7 12 16 9 21 -3 5 -1 17 4 26 6 10 6 26 1 40 -4 12 -4 25 0 28 10 6 9
24 -2 43 -5 6 -4 12 2 12 10 0 7 32 -5 52 -4 6 -3 8 4 4 6 -3 1 18 -10 46 -11
29 -21 61 -21 70 -1 9 -5 14 -9 12 -4 -3 -8 1 -8 9 0 8 -7 20 -15 27 -9 7 -14
15 -11 17 5 5 -63 73 -94 93 -13 8 -30 23 -39 33 -8 9 -21 17 -27 17 -6 0 -17
7 -24 15 -7 8 -16 12 -21 9 -5 -3 -9 0 -9 6 0 6 -4 8 -10 5 -5 -3 -10 -2 -10
2 0 11 -72 44 -100 46 -11 1 -20 5 -20 9 0 4 -11 8 -25 8 -14 0 -36 0 -50 0
-14 0 -25 4 -25 9 0 6 -9 13 -20 16 -13 4 -20 15 -20 31 0 13 -6 24 -12 24 -9
0 -8 4 2 10 10 6 11 10 3 10 -7 0 -13 9 -13 20 0 11 -4 20 -9 20 -5 0 -11 10
-15 23 -9 39 -151 177 -182 177 -9 0 -12 5 -8 12 5 8 2 9 -9 5 -11 -4 -17 -1
-17 7 0 8 -8 13 -17 12 -10 -2 -24 3 -31 11 -8 7 -17 11 -22 8 -5 -3 -11 -1
-15 5 -4 6 -11 8 -16 5 -5 -4 -9 -1 -9 5 0 6 -4 9 -9 5 -5 -3 -12 -1 -16 4 -3
5 -14 8 -25 6 -11 -2 -20 2 -20 8 0 7 -4 6 -10 -3 -8 -13 -10 -12 -10 3 0 10
-5 15 -11 12 -10 -7 -42 20 -47 38 -1 4 -2 8 -3 10 -2 6 -8 35 -14 67 -3 19
-11 37 -16 41 -6 3 -10 8 -9 10 9 24 -92 155 -111 144 -4 -3 -9 2 -13 10 -3 8
-12 15 -21 15 -8 0 -15 5 -15 10 0 6 -6 10 -13 10 -7 0 -19 9 -27 20 -8 11
-20 20 -27 20 -7 0 -29 11 -49 25 -21 14 -44 23 -51 21 -7 -3 -13 -1 -13 4 0
8 -61 25 -76 20 -4 -1 -11 4 -15 12 -7 10 -9 10 -9 0 0 -8 -5 -10 -12 -5 -19
11 -98 10 -98 -2 0 -5 -5 -3 -10 5 -6 10 -10 11 -10 2 0 -6 -3 -11 -7 -11 -5
1 -11 0 -15 -1 -9 -3 -9 -3 -55 -14 -18 -4 -33 -12 -33 -17 0 -6 -9 -8 -20 -4
-16 5 -19 3 -13 -11 4 -11 2 -15 -4 -11 -10 6 -70 -32 -83 -53 -3 -5 -20 4
-37 20 -18 17 -37 30 -42 30 -6 0 -11 7 -11 16 0 8 -4 13 -8 10 -5 -3 -21 6
-38 19 -44 37 -47 39 -74 53 -14 7 -42 22 -62 33 -21 10 -48 21 -60 23 -13 3
-23 5 -23 6 0 1 -18 4 -40 6 -86 9 -125 9 -125 3 0 -4 -11 -6 -25 -4 -14 1
-25 -2 -25 -6 0 -5 -3 -8 -7 -7 -5 1 -24 -4 -43 -11 -19 -8 -38 -13 -42 -12
-5 0 -8 -3 -8 -9 0 -5 -5 -10 -10 -10 -12 0 -15 -3 -74 -55 -22 -19 -44 -35
-48 -35 -4 0 -7 -3 -7 -8 4 -21 -2 -32 -13 -26 -7 5 -9 2 -5 -9 4 -11 -1 -18
-14 -22 -10 -4 -17 -10 -14 -14 2 -4 -3 -17 -13 -27 -9 -10 -28 -36 -42 -56
-13 -20 -28 -34 -32 -32 -5 3 -7 2 -6 -3 3 -11 -34 -73 -44 -73 -4 0 -8 -8 -8
-18 0 -9 -9 -23 -20 -30 -11 -7 -20 -16 -20 -22 0 -8 -62 -111 -87 -145 -5 -6
-9 -17 -11 -25 -6 -29 -42 -55 -77 -55 -19 -1 -35 2 -35 5 0 3 -11 6 -25 7
-14 1 -36 3 -50 4 -14 1 -25 7 -25 13 0 7 -3 7 -8 1 -9 -13 -35 -19 -28 -6 5
8 -16 10 -91 11 -13 0 -23 4 -23 9 0 4 -15 8 -32 9 -69 2 -88 5 -88 13 0 5
-13 7 -30 5 -18 -2 -27 1 -23 7 4 6 0 8 -10 4 -10 -3 -17 -2 -17 2 0 5 -8 7
-19 4 -10 -3 -22 0 -25 5 -3 6 -15 8 -26 5 -11 -3 -27 0 -35 7 -11 9 -15 9
-15 1 0 -7 -5 -9 -12 -4 -15 9 -36 14 -58 14 -8 1 -22 3 -30 6 -8 4 -28 8 -45
10 -16 2 -36 4 -42 5 -7 1 -13 6 -13 11 0 5 -6 4 -14 -2 -10 -8 -16 -9 -21 -1
-3 5 -17 10 -31 10 -14 0 -35 5 -46 11 -16 9 -19 8 -13 -2 6 -8 4 -10 -6 -3
-8 4 -18 9 -24 11 -5 1 -44 9 -85 18 -41 9 -82 18 -90 20 -8 2 -25 4 -38 4
-16 1 -21 5 -16 14 5 7 0 6 -11 -3 -15 -12 -17 -12 -10 -1 6 11 3 13 -13 9
-12 -4 -22 -3 -22 1 0 4 -8 7 -17 8 -10 1 -34 4 -53 8 -19 4 -41 7 -47 7 -7 1
-13 4 -13 8 0 6 -15 8 -74 12 -19 1 -32 6 -30 10 5 7 -50 12 -59 6 -2 -2 -10
2 -18 9 -8 7 -32 13 -52 15 -20 1 -37 5 -37 8 0 3 -13 7 -30 8 -17 1 -30 -3
-30 -8 0 -6 -4 -9 -8 -6 -4 2 -9 -9 -10 -25 -3 -44 -6 -53 -17 -61 -6 -5 -6
-8 2 -8 12 0 12 -17 0 -37 -5 -8 -3 -13 3 -13 7 0 8 -6 1 -18 -6 -11 -6 -24 1
-36 8 -15 8 -17 -2 -11 -10 6 -12 4 -7 -8 3 -9 1 -18 -6 -21 -9 -3 -8 -5 1 -5
9 -1 10 -7 4 -18 -4 -10 -8 -45 -7 -78 1 -33 -3 -66 -8 -72 -6 -9 -6 -13 2
-13 7 0 8 -8 1 -25 -7 -17 -6 -25 1 -25 8 0 7 -5 -1 -15 -9 -11 -9 -15 -1 -15
9 0 9 -5 1 -20 -6 -12 -7 -20 -1 -20 6 0 6 -11 1 -30 -5 -16 -6 -30 -2 -30 4
0 7 -45 7 -100 0 -55 2 -100 5 -100 3 0 5 -25 4 -55 0 -30 3 -55 6 -55 9 0 6
-32 -5 -49 -5 -9 -4 -12 2 -8 6 4 11 -8 12 -26 3 -54 10 -111 14 -132 2 -11
-1 -26 -7 -34 -8 -11 -8 -13 2 -7 8 5 12 0 13 -16 3 -64 5 -74 12 -85 5 -8 3
-13 -5 -13 -8 0 -9 -3 -3 -8 10 -7 18 -44 19 -89 0 -13 3 -23 7 -23 5 0 6 -9
4 -20 -2 -11 2 -20 8 -20 7 0 6 -4 -3 -10 -9 -6 -11 -10 -3 -10 7 0 10 -7 7
-15 -4 -8 0 -23 7 -32 12 -14 12 -16 -1 -8 -12 7 -13 6 -4 -6 6 -8 12 -22 13
-31 1 -10 2 -29 3 -43 1 -14 5 -25 8 -25 3 0 7 -12 8 -27 4 -45 8 -62 15 -69
4 -4 7 -22 7 -39 0 -17 3 -35 7 -39 7 -6 11 -20 17 -61 2 -11 4 -20 5 -20 3 0
10 -32 14 -60 2 -12 6 -26 10 -32 4 -6 8 -23 9 -37 1 -14 5 -26 9 -26 6 0 16
-38 21 -77 1 -7 5 -13 9 -13 5 0 6 -7 3 -15 -4 -8 -2 -15 3 -15 5 0 10 -14 11
-32 2 -18 7 -35 12 -38 6 -3 11 -18 12 -33 1 -15 6 -27 11 -27 5 0 6 -7 3 -15
-3 -9 1 -18 9 -21 7 -3 11 -12 9 -19 -3 -7 0 -16 6 -20 9 -6 9 -10 -1 -16 -11
-7 -11 -9 2 -9 9 0 16 -7 17 -15 1 -8 3 -22 4 -30 1 -8 6 -15 11 -15 5 0 7 -7
3 -15 -3 -8 -2 -15 3 -15 7 0 17 -23 26 -60 0 -3 6 -15 13 -27 7 -13 9 -23 5
-23 -4 0 -3 -4 2 -8 16 -11 36 -52 30 -61 -2 -5 2 -14 10 -21 8 -7 15 -21 15
-31 0 -11 5 -19 10 -19 6 0 10 -3 9 -7 -2 -17 14 -53 24 -53 6 0 8 -3 4 -6 -6
-6 29 -83 42 -94 3 -3 7 -14 9 -24 2 -10 10 -25 18 -33 8 -8 14 -20 14 -27 0
-8 7 -19 15 -26 9 -7 14 -19 11 -27 -3 -8 -1 -11 4 -8 9 5 11 0 10 -20 -1 -3
8 -17 20 -32 11 -14 20 -32 20 -40 0 -7 7 -16 15 -19 8 -4 15 -15 15 -25 0
-10 5 -19 10 -19 6 0 10 -5 10 -11 0 -6 18 -38 40 -70 22 -32 40 -61 40 -65 0
-3 8 -16 18 -29 9 -12 24 -33 32 -45 8 -12 21 -29 28 -36 7 -8 11 -14 7 -14
-3 0 -1 -6 5 -12 6 -7 26 -34 44 -60 18 -26 36 -45 40 -41 3 3 6 -2 6 -13 0
-11 9 -26 19 -34 11 -7 18 -17 15 -22 -3 -4 2 -8 10 -8 9 0 15 -3 15 -8 -4
-21 3 -32 18 -32 9 0 14 -3 10 -6 -6 -7 2 -17 46 -64 15 -15 27 -33 27 -39 0
-6 7 -11 16 -11 8 0 13 -4 10 -9 -3 -5 1 -11 9 -15 8 -3 15 -10 15 -16 0 -5
25 -36 55 -67 30 -32 55 -61 55 -66 0 -4 5 -5 10 -2 6 3 10 -1 10 -9 0 -9 7
-16 17 -16 9 0 14 -3 10 -6 -3 -4 34 -45 83 -93 136 -131 180 -171 180 -163 0
4 9 -6 20 -23 11 -16 20 -27 20 -22 0 6 14 -5 86 -68 12 -11 34 -29 49 -39 14
-11 35 -27 45 -36 10 -9 31 -25 46 -36 15 -10 35 -27 46 -37 10 -9 21 -17 24
-17 3 0 11 -6 19 -13 25 -23 68 -52 71 -47 2 3 10 -4 18 -15 9 -11 16 -16 16
-11 0 5 8 0 17 -10 10 -11 30 -25 46 -33 15 -8 27 -18 27 -23 0 -4 6 -8 14 -8
8 0 22 -10 30 -22 11 -15 16 -18 16 -8 0 13 2 13 10 0 5 -8 13 -15 17 -15 4 0
24 -12 43 -26 19 -14 56 -36 83 -50 26 -13 47 -28 47 -32 0 -5 4 -6 9 -2 5 3
12 1 16 -5 8 -13 107 -65 118 -62 4 1 7 -3 7 -8 0 -6 6 -10 14 -10 8 0 22 -8
32 -17 10 -10 18 -17 18 -16 3 7 46 -11 46 -19 0 -5 5 -6 10 -3 6 3 10 1 10
-6 0 -7 3 -10 6 -6 3 3 26 -5 51 -19 25 -13 49 -21 54 -18 5 3 9 1 9 -5 0 -5
16 -15 35 -22 19 -7 35 -17 35 -22 0 -4 3 -6 8 -3 4 2 30 -6 57 -19 28 -12 53
-21 58 -18 4 2 7 -1 7 -7 0 -6 4 -9 9 -5 5 3 12 1 16 -5 3 -5 15 -10 26 -10
10 0 19 -5 19 -11 0 -6 7 -9 15 -5 8 3 15 1 15 -4 0 -8 57 -26 73 -22 4 1 7
-3 7 -9 0 -5 5 -7 10 -4 6 3 10 1 10 -6 0 -7 3 -10 6 -6 4 3 22 0 40 -8 19 -8
34 -12 34 -9 0 2 10 -2 23 -10 12 -7 30 -12 40 -11 9 2 17 -1 17 -6 0 -5 8 -9
18 -9 10 0 22 -3 26 -7 7 -7 96 -32 124 -35 6 -1 12 -6 12 -11 0 -6 3 -8 6 -5
3 3 29 -1 57 -9 29 -8 59 -16 67 -18 8 -2 17 -4 20 -5 3 -1 9 -2 14 -1 4 1 14
-4 22 -10 8 -6 14 -8 14 -4 0 4 6 2 14 -4 10 -8 16 -9 21 -2 4 7 15 5 30 -5
14 -9 32 -14 40 -10 8 3 15 1 15 -4 0 -12 22 -9 32 5 5 6 8 5 8 -2 0 -7 9 -13
19 -13 11 0 22 -4 26 -10 3 -5 12 -7 20 -3 8 3 15 1 15 -4 0 -5 16 -9 35 -8
19 1 32 -2 29 -6 -5 -8 23 -12 79 -12 9 0 17 -3 17 -6 0 -4 23 -8 52 -9 29 -1
55 -7 59 -13 4 -8 8 -7 12 2 4 10 8 11 14 3 4 -5 23 -10 41 -9 18 0 35 -2 37
-6 3 -3 16 -4 30 -1 14 2 25 0 25 -4 0 -5 17 -10 38 -10 86 -3 122 -8 122 -17
0 -5 7 -4 15 3 8 7 15 9 15 4 0 -18 801 -28 812 -10 6 8 8 7 8 -1 0 -15 36
-17 45 -3 4 6 12 7 18 3 17 -10 47 -11 41 -1 -3 5 6 7 19 4 14 -2 28 -2 31 2
11 10 36 11 36 1 0 -10 22 -8 31 4 3 4 32 9 65 11 79 6 76 5 71 13 -3 5 30 8
74 8 43 -1 79 3 79 7 0 3 8 7 18 6 32 0 107 10 125 17 10 4 31 8 47 9 17 0 30
3 30 6 0 3 17 6 38 8 43 4 77 9 77 12 0 1 14 4 30 6 17 3 37 7 45 11 24 10 43
14 70 16 14 1 31 6 38 10 6 5 17 5 22 2 6 -3 10 -1 10 5 0 7 7 9 15 6 9 -3 23
-1 33 4 25 14 134 40 144 34 4 -3 8 3 9 13 0 11 3 13 6 5 4 -10 8 -10 19 -1 8
6 14 8 14 4 0 -4 7 -2 15 5 8 6 18 9 23 6 6 -3 15 0 21 8 7 8 20 13 29 11 9
-1 26 2 37 8 19 10 26 13 58 20 6 1 18 6 25 10 6 5 12 5 12 1 0 -3 11 1 25 10
14 9 30 14 35 11 6 -3 10 -1 10 4 0 6 3 10 8 9 4 -1 22 3 40 9 18 7 34 11 35
10 2 -1 15 6 30 16 15 10 32 15 37 12 6 -3 10 -1 10 5 0 6 5 8 10 5 6 -3 10
-1 10 4 0 6 3 10 8 9 4 -2 27 6 52 16 25 11 51 18 59 17 7 -1 10 2 6 8 -3 7 2
11 14 11 12 0 21 4 21 8 0 4 10 8 22 9 11 1 24 7 28 14 4 6 13 8 19 5 6 -4 11
-3 11 2 0 10 79 47 93 44 4 -1 7 3 7 9 0 6 6 9 14 6 8 -3 17 1 20 9 3 9 10 12
16 9 5 -3 10 -1 10 5 0 6 4 9 9 5 6 -3 14 2 19 11 5 9 13 16 18 16 17 1 59 19
65 29 3 6 16 11 27 12 12 1 22 7 22 15 0 7 4 11 9 7 5 -3 17 2 25 11 9 8 16
13 16 9 0 -6 48 23 68 42 8 7 18 11 23 8 5 -4 9 -2 9 4 0 5 10 13 22 17 12 3
28 12 35 18 29 26 43 37 50 39 5 1 7 6 5 10 -1 5 2 6 8 2 5 -3 20 3 32 14 12
12 28 21 35 21 7 0 13 5 13 10 0 6 7 10 15 10 8 0 15 5 15 10 0 6 7 10 15 10
8 0 15 4 15 8 0 5 16 16 35 25 19 9 35 22 35 29 0 6 3 9 6 6 3 -4 14 1 23 10
25 24 51 44 86 66 17 11 36 26 43 33 7 7 20 13 28 13 8 0 13 5 11 12 -1 7 5
13 13 13 8 0 14 7 12 14 -1 7 1 10 6 8 4 -3 32 10 62 29 30 19 60 34 68 34 7
0 11 4 7 9 -3 5 4 12 15 16 11 3 20 12 20 20 0 8 9 17 20 20 11 4 18 11 15 16
-4 5 1 9 10 9 9 0 14 4 10 9 -3 6 4 15 15 21 11 6 18 15 15 21 -4 5 1 9 9 9 9
0 16 4 16 8 0 4 15 23 34 42 19 19 32 38 29 43 -2 4 0 6 4 5 11 -4 73 57 73
71 0 5 9 13 20 16 11 3 20 10 20 14 0 4 18 27 40 51 22 24 57 64 78 88 20 24
49 57 65 72 15 16 27 31 27 33 0 6 28 40 70 86 14 16 26 33 27 40 2 6 11 19
20 29 10 10 29 34 43 55 14 20 28 37 33 37 4 0 7 7 7 15 0 8 5 15 11 15 5 0 8
4 5 8 -3 5 5 18 17 30 35 33 46 49 39 57 -4 3 1 11 11 16 9 6 15 14 12 20 -4
5 -1 9 4 9 6 0 11 5 11 10 0 6 9 20 20 32 11 12 20 28 20 35 0 7 3 13 8 13 4
0 18 21 32 48 13 26 29 50 35 54 5 4 10 11 10 15 0 12 68 127 76 131 4 2 5 10
2 18 -3 8 -1 14 4 14 5 0 15 16 23 35 8 19 18 35 23 35 5 0 7 6 4 14 -3 8 1
17 9 20 9 3 12 10 9 16 -3 5 -1 10 4 10 6 0 10 3 9 8 -4 11 23 72 32 72 4 0 7
6 7 13 -1 6 11 39 27 72 56 122 66 145 66 160 0 8 5 15 12 15 6 0 9 3 5 6 -3
4 0 19 9 35 8 16 12 29 8 29 -4 0 -1 7 6 15 6 8 9 19 5 25 -3 5 -2 10 4 10 10
0 37 76 33 93 -1 4 4 10 12 13 8 3 12 12 9 20 -3 8 0 20 6 28 7 8 11 18 10 22
-1 5 0 12 1 17 1 4 4 12 5 17 1 6 3 11 5 13 1 1 3 11 5 21 2 10 7 22 12 25 4
3 9 17 11 31 1 14 7 27 13 28 6 3 6 8 -1 17 -8 9 -8 15 0 20 6 3 8 11 5 16 -4
5 -2 9 3 9 5 0 9 6 10 13 1 14 10 51 12 55 2 1 3 10 4 20 1 9 6 24 11 32 5 8
10 22 10 30 2 40 18 111 27 116 6 4 5 10 -3 15 -11 7 -11 9 -1 9 7 0 10 5 7
10 -3 6 -1 10 5 10 6 0 9 4 6 9 -8 12 16 125 29 133 6 5 5 8 -3 8 -10 0 -10 5
-2 20 6 11 8 25 5 30 -3 5 0 12 6 16 8 4 7 9 -2 15 -12 7 -12 9 0 9 7 0 11 6
8 14 -3 8 -3 17 0 20 3 3 7 22 9 42 2 21 9 41 15 44 8 6 8 9 0 11 -7 3 -8 14
-3 34 5 17 8 40 7 53 -1 12 1 22 4 22 6 0 12 66 15 153 1 27 5 36 15 32 10 -4
11 -2 4 7 -10 15 -11 83 -1 94 4 4 3 15 -2 25 -7 12 -7 20 0 24 8 5 7 12 -2
23 -11 13 -11 15 2 10 13 -5 15 11 15 101 0 58 4 112 10 120 7 10 6 15 -2 18
-7 2 -9 11 -6 19 3 7 10 11 17 8 6 -3 3 1 -6 9 -16 13 -16 15 0 31 16 16 16
17 -3 10 -19 -8 -19 -7 -2 19 16 25 16 26 0 20 -15 -6 -16 -4 -5 9 10 13 10
17 0 21 -10 4 -10 6 1 6 11 1 11 4 1 16 -7 9 -8 15 -2 15 6 0 9 8 7 18 -2 9
-4 17 -6 17 -8 0 -4 63 5 74 8 11 8 13 -1 8 -8 -5 -11 5 -10 37 1 24 -1 42 -5
39 -5 -2 -8 1 -8 6 0 6 5 11 11 11 6 0 3 8 -7 17 -11 11 -13 18 -5 21 6 2 9 8
6 13 -4 5 -8 26 -10 46 -3 21 -7 54 -9 73 -3 19 -5 43 -5 53 -1 10 -5 15 -11
12 -5 -3 -10 -1 -10 6 0 8 -4 8 -12 1 -7 -5 -26 -12 -43 -15 -16 -3 -43 -8
-60 -12 -16 -4 -35 -8 -42 -9 -7 -1 -16 -5 -19 -9 -4 -4 -19 -7 -34 -7 -15 0
-30 -3 -34 -7 -8 -8 -13 -9 -59 -11 -16 -1 -26 -6 -22 -11 3 -6 -4 -8 -16 -6
-12 3 -27 1 -33 -3 -6 -4 -18 -7 -27 -7 -9 0 -24 -7 -34 -15 -11 -9 -16 -10
-11 -2 4 6 3 12 -3 12 -5 0 -13 -5 -16 -10 -3 -6 -17 -8 -31 -6 -16 3 -22 1
-18 -6 5 -7 -2 -9 -20 -6 -14 3 -26 1 -26 -4 0 -6 -7 -8 -15 -5 -8 4 -17 2
-20 -4 -4 -5 -10 -7 -15 -4 -5 3 -11 1 -14 -4 -4 -5 -18 -8 -31 -5 -14 2 -25
0 -25 -5 0 -6 -7 -8 -15 -5 -8 4 -15 2 -15 -3 0 -5 -16 -8 -35 -8 -19 1 -35
-2 -35 -7 0 -5 -4 -7 -9 -3 -5 3 -12 1 -16 -5 -4 -6 -11 -8 -16 -5 -5 4 -14 3
-21 -1 -7 -4 -28 -9 -47 -11 -19 -2 -42 -9 -50 -16 -12 -10 -13 -9 -6 2 6 11
5 12 -6 5 -8 -4 -18 -9 -24 -10 -5 -1 -23 -5 -40 -9 -16 -3 -43 -8 -58 -11
-15 -2 -37 -9 -49 -15 -16 -9 -19 -8 -13 2 5 8 4 10 -3 5 -18 -11 -53 -19 -89
-20 -17 0 -29 -5 -26 -10 4 -5 -3 -7 -15 -4 -12 4 -22 3 -22 -2 0 -4 -16 -7
-35 -5 -19 1 -32 -2 -29 -7 3 -4 -11 -9 -30 -9 -48 -2 -53 -3 -62 -12 -12 -12
-26 -8 -18 6 6 9 4 8 -8 -1 -9 -7 -30 -14 -47 -14 -17 -1 -31 -5 -31 -10 0 -4
-7 -8 -15 -8 -8 0 -15 6 -15 13 0 8 -3 7 -10 -3 -5 -8 -12 -11 -16 -7 -4 4
-13 2 -21 -4 -10 -9 -13 -8 -13 2 0 12 -2 12 -9 1 -5 -8 -25 -16 -46 -18 -21
-2 -54 -6 -74 -10 -20 -4 -52 -7 -73 -8 -20 0 -34 -4 -31 -8 4 -8 -28 -12 -74
-10 -13 1 -23 -2 -23 -7 0 -4 -10 -7 -22 -6 -13 1 -27 0 -33 -3 -17 -10 -70
-10 -83 1 -9 7 -11 6 -6 -6 4 -12 0 -15 -20 -13 -15 2 -29 -1 -32 -5 -3 -5
-14 -4 -25 1 -15 8 -21 7 -25 -4 -3 -8 -11 -13 -18 -10 -7 3 -24 1 -38 -5 -14
-5 -31 -6 -38 -1 -8 5 -19 5 -25 1 -17 -14 -52 -19 -66 -10 -8 5 -17 3 -21 -4
-5 -8 -8 -6 -8 6 0 10 -4 15 -10 12 -6 -3 -7 1 -4 9 3 9 10 13 15 10 5 -3 9 1
9 9 0 8 7 18 16 21 9 4 14 9 11 12 -3 3 10 21 28 40 19 19 34 35 34 37 -2 12
16 37 28 37 8 0 11 5 8 10 -3 6 -1 10 5 10 6 0 8 4 5 10 -3 6 -1 10 5 10 6 0
8 4 5 10 -3 6 -2 10 3 10 10 0 55 87 55 107 0 7 4 13 9 13 5 0 6 4 3 10 -3 5
-2 10 2 10 5 0 10 14 11 31 1 17 7 40 13 51 8 15 8 19 0 14 -6 -4 -11 -3 -11
3 0 5 4 12 8 15 10 6 9 36 -2 54 -4 6 -5 16 -1 21 3 5 -2 17 -11 25 -8 9 -12
16 -8 16 3 0 1 7 -6 15 -7 8 -9 15 -6 15 12 0 -73 86 -99 100 -13 7 -22 17
-19 22 3 4 -2 8 -10 8 -9 0 -16 5 -16 10 0 6 -7 10 -15 10 -8 0 -15 5 -15 11
0 5 -4 7 -10 4 -5 -3 -10 1 -10 9 0 9 -7 16 -15 16 -7 0 -18 8 -24 17 -5 10
-13 15 -17 11 -4 -4 -18 5 -30 20 -13 15 -24 24 -24 20 0 -5 -10 1 -22 12 -13
10 -27 19 -31 19 -5 0 -17 10 -28 22 -10 12 -19 19 -19 15 0 -4 -6 -1 -14 6
-22 21 -54 41 -58 37 -7 -7 -36 26 -30 35 3 5 0 6 -5 3 -6 -4 -16 0 -23 8 -7
8 -19 15 -26 15 -8 0 -14 4 -14 9 0 5 -9 13 -20 16 -11 3 -26 12 -32 18 -28
26 -142 100 -154 100 -7 0 -11 4 -9 8 3 4 -8 13 -25 21 -16 7 -30 16 -30 20 0
5 -6 8 -14 8 -7 0 -25 11 -39 24 -14 13 -28 21 -31 18 -3 -3 -6 0 -6 6 0 7 -7
12 -15 12 -9 0 -18 7 -21 15 -4 8 -10 12 -15 9 -5 -3 -9 0 -9 5 0 6 -6 11 -12
11 -7 0 -26 11 -42 25 -28 24 -40 29 -59 26 -5 -1 -6 2 -3 7 3 5 -10 18 -29
28 -19 10 -35 22 -35 27 0 4 -4 6 -9 3 -5 -3 -11 1 -15 9 -3 8 -12 15 -21 15
-8 0 -15 5 -15 10 0 6 -6 10 -13 10 -7 0 -23 9 -35 20 -12 12 -22 17 -22 13 0
-4 -4 -3 -8 2 -9 13 -66 50 -70 46 -2 -1 -12 7 -21 18 -10 11 -21 18 -24 14
-4 -3 -9 2 -13 11 -3 9 -10 14 -14 11 -5 -3 -15 2 -23 10 -9 8 -20 15 -26 15
-6 0 -11 3 -11 8 0 4 -18 16 -40 26 -22 11 -40 23 -40 28 0 5 -4 6 -10 3 -5
-3 -10 1 -10 9 0 9 -7 16 -14 16 -8 0 -27 11 -42 25 -14 13 -30 22 -34 20 -4
-3 -10 2 -14 10 -3 8 -12 15 -20 15 -8 0 -16 4 -18 8 -1 5 -26 20 -55 34 -29
14 -49 29 -45 33 4 3 2 5 -3 4 -10 -3 -80 18 -99 29 -20 11 -182 19 -192 9 -4
-4 -13 -2 -19 3 -9 7 -16 6 -24 -4 -9 -11 -19 -12 -37 -6 -16 6 -24 6 -24 -1
0 -6 -4 -7 -10 -4 -5 3 -10 1 -10 -5 0 -7 -7 -10 -15 -7 -8 4 -17 2 -21 -4 -3
-6 -12 -8 -20 -5 -8 3 -14 1 -14 -5 0 -6 -4 -8 -9 -4 -5 3 -12 1 -16 -5 -3 -5
-15 -10 -26 -10 -10 0 -19 -4 -19 -10 0 -5 -9 -10 -19 -10 -11 0 -23 -5 -26
-11 -4 -6 -14 -8 -22 -5 -8 3 -11 1 -8 -4 5 -8 -8 -14 -17 -8 -2 1 -22 -11
-45 -25 -24 -15 -45 -27 -48 -27 -3 0 -23 -11 -45 -25 -22 -14 -40 -22 -40
-18 0 5 -5 0 -11 -10 -6 -9 -14 -15 -20 -12 -5 4 -12 -1 -15 -9 -3 -9 -10 -14
-14 -11 -5 3 -14 0 -22 -7 -7 -7 -26 -20 -43 -28 -16 -8 -34 -21 -38 -28 -5
-7 -12 -10 -18 -7 -5 4 -9 1 -9 -5 0 -6 -4 -8 -10 -5 -5 3 -10 1 -10 -5 0 -6
-4 -8 -10 -5 -5 3 -10 2 -10 -4 0 -6 -11 -13 -25 -17 -14 -3 -25 -10 -25 -15
0 -5 -9 -9 -20 -9 -11 0 -20 -4 -20 -9 0 -9 -33 -23 -59 -25 -8 -1 -16 -7 -19
-14 -2 -6 -10 -12 -18 -12 -8 0 -14 -5 -14 -11 0 -5 -4 -8 -9 -5 -5 3 -22 -1
-37 -9 -16 -8 -36 -15 -44 -15 -9 0 -21 -5 -27 -11 -6 -6 -28 -12 -48 -13 -20
-2 -40 -7 -43 -12 -4 -5 -36 -9 -70 -9 -35 0 -66 -4 -69 -8 -3 -4 -10 -4 -16
1 -12 10 -18 11 -74 15 -18 1 -33 4 -33 7 0 3 -10 6 -22 7 -11 1 -24 7 -28 14
-4 6 -12 9 -17 6 -6 -4 -19 2 -30 13 -12 10 -24 16 -27 13 -3 -4 -6 -2 -6 4 0
5 -13 25 -30 43 -27 30 -32 43 -29 66 0 4 -4 10 -9 13 -13 8 -22 110 -10 117
5 3 5 11 -2 19 -8 9 -7 17 4 28 8 8 18 26 22 41 3 14 10 23 15 20 5 -3 9 0 9
6 0 11 34 51 131 152 31 32 56 58 54 58 -6 0 205 210 212 210 4 0 21 18 37 40
17 22 32 40 36 40 3 0 31 24 63 54 31 30 61 56 65 58 4 2 17 16 29 31 12 15
24 27 26 25 4 -3 56 42 178 154 14 12 54 43 89 68 35 25 71 53 82 63 10 9 18
15 18 12 0 -2 16 4 36 15 19 11 39 18 44 15 4 -3 10 0 12 7 4 11 18 16 61 20
9 1 17 6 17 10 0 4 9 5 20 3 11 -2 22 1 25 6 4 5 11 6 17 3 6 -4 14 0 19 7 7
11 9 11 9 1 0 -10 5 -10 20 -2 15 8 20 8 20 -1 0 -8 4 -8 15 1 8 7 15 8 15 3
0 -13 40 -14 40 0 0 7 5 4 11 -7 9 -15 13 -16 20 -5 5 8 9 9 9 3 0 -6 14 -10
30 -9 17 1 30 -1 30 -4 0 -3 10 -7 23 -8 25 -3 35 -5 97 -22 25 -7 46 -13 48
-12 1 1 21 -9 45 -22 23 -13 48 -22 55 -20 6 3 12 0 12 -7 0 -6 5 -8 10 -5 6
3 10 1 10 -6 0 -7 3 -9 7 -6 3 4 17 0 29 -8 13 -8 35 -16 48 -17 14 -1 22 -6
20 -10 -3 -4 0 -9 5 -9 6 -1 14 -3 19 -4 4 -2 17 -6 30 -10 12 -4 22 -11 22
-16 0 -5 9 -9 19 -9 11 0 21 -3 23 -7 3 -8 41 -30 128 -75 25 -13 47 -25 50
-28 12 -12 51 -30 67 -30 9 0 13 -3 10 -7 -7 -6 37 -33 55 -33 5 0 16 -7 25
-15 8 -8 19 -13 24 -10 5 4 9 3 9 -2 0 -4 11 -13 25 -20 19 -8 24 -8 19 0 -3
7 0 5 8 -3 15 -17 126 -73 146 -73 6 0 12 -6 12 -13 0 -8 8 -11 20 -9 11 2 18
0 15 -6 -4 -5 2 -9 13 -9 10 0 22 -3 26 -8 4 -4 11 -7 14 -8 4 0 21 -7 37 -14
17 -7 33 -13 38 -12 4 1 7 -3 7 -10 0 -6 3 -8 7 -5 3 4 11 3 17 -1 9 -7 101
-44 116 -47 3 -1 22 -9 44 -18 21 -9 45 -17 54 -17 8 0 24 -7 34 -17 10 -9 18
-11 18 -5 0 6 7 9 15 6 8 -4 13 -9 11 -13 -3 -4 9 -8 26 -9 17 -1 36 -6 42 -9
6 -4 18 -8 26 -10 8 -1 16 -6 18 -11 1 -4 16 -7 32 -6 17 1 30 -3 30 -8 0 -6
7 -8 15 -5 8 4 17 2 20 -3 3 -5 14 -7 25 -5 11 2 20 -1 20 -7 0 -6 9 -8 20 -5
11 3 26 0 33 -6 6 -7 21 -13 32 -13 50 -3 121 -17 132 -26 7 -6 14 -5 19 3 5
9 10 9 18 -2 6 -8 32 -15 61 -16 28 -1 93 -5 145 -8 148 -9 210 -10 210 -5 0
3 44 6 98 6 53 1 106 5 116 9 15 6 17 5 11 -5 -6 -10 -4 -11 6 -4 8 5 33 9 57
10 23 0 45 3 48 7 3 3 17 3 30 1 13 -2 24 0 24 6 0 6 9 6 25 0 13 -5 27 -6 29
-1 3 4 24 9 48 10 24 1 59 4 78 7 19 2 55 6 80 8 25 2 47 5 50 6 3 1 9 2 14 1
5 -1 13 4 17 11 7 11 9 11 9 0 0 -8 5 -10 12 -6 7 4 24 8 38 9 14 1 31 5 38 9
7 4 12 5 12 2 0 -3 15 1 34 9 18 8 36 11 40 8 3 -4 6 0 6 7 0 7 3 11 6 7 4 -3
13 1 21 9 8 8 18 12 22 9 5 -2 18 5 29 16 12 11 22 17 22 14 0 -3 11 6 25 21
14 15 25 23 25 18 0 -5 5 -1 11 9 5 9 17 17 26 17 9 0 14 3 10 6 -5 5 0 13 51
72 38 46 41 50 35 56 -4 3 -1 6 5 6 6 0 9 7 5 17 -4 10 -2 14 4 10 9 -6 25 30
22 49 0 4 5 10 11 14 11 7 22 59 21 103 0 9 5 15 11 11 6 -4 6 1 -1 14 -6 12
-7 23 -2 26 10 7 9 25 -2 43 -4 6 -3 14 2 17 10 7 9 25 -2 44 -5 7 -3 12 5 12
8 0 9 3 3 8 -12 8 -18 29 -17 55 0 9 -2 17 -6 17 -7 0 -9 8 -13 65 -1 14 -5
25 -10 25 -5 0 -9 9 -9 20 0 11 -4 20 -9 20 -5 0 -8 8 -7 18 4 22 -14 62 -27
62 -6 0 -7 3 -4 6 3 4 1 16 -5 28 -7 11 -13 23 -13 26 0 3 -6 15 -13 28 -7 12
-10 22 -7 22 4 0 -1 7 -9 16 -9 8 -14 20 -11 25 4 5 1 9 -4 9 -6 0 -11 9 -11
20 0 11 -4 20 -10 20 -5 0 -10 6 -10 13 0 7 -9 31 -19 54 -11 22 -21 46 -23
54 -2 7 -9 20 -15 27 -7 7 -13 22 -13 33 0 11 -7 22 -15 25 -8 4 -13 9 -10 13
2 4 -10 36 -28 72 -18 35 -39 80 -47 99 -7 19 -22 47 -32 62 -10 14 -18 33
-18 42 0 9 -4 16 -10 16 -5 0 -10 8 -10 18 0 9 -7 26 -15 36 -8 10 -12 23 -9
27 3 5 1 9 -4 9 -4 0 -14 16 -22 35 -8 19 -16 35 -20 35 -3 0 -6 8 -7 18 -1
11 -13 36 -28 57 -14 21 -28 49 -31 62 -4 13 -10 23 -14 23 -4 0 -11 7 -14 16
-4 10 -2 13 7 8 6 -4 5 1 -4 12 -9 10 -27 39 -40 64 -13 25 -28 48 -32 51 -5
3 -7 8 -6 10 5 7 -25 69 -33 69 -5 0 -8 7 -8 15 0 8 -4 15 -10 15 -5 0 -7 7
-4 15 4 8 1 15 -7 15 -7 0 -10 3 -6 6 3 4 -1 13 -9 21 -8 8 -12 19 -9 24 4 5
2 9 -3 9 -5 0 -15 15 -23 33 -7 17 -15 34 -18 37 -4 3 -13 19 -21 35 -8 17
-23 42 -33 58 -10 15 -15 27 -11 27 4 0 0 8 -9 18 -10 10 -14 22 -11 25 4 4
-1 9 -10 13 -9 3 -16 15 -16 25 0 10 -4 19 -10 19 -5 0 -12 11 -16 25 -3 14
-10 25 -16 25 -5 0 -7 4 -4 9 3 5 -1 14 -9 21 -8 7 -12 16 -9 21 3 5 0 9 -5 9
-6 0 -11 7 -11 15 0 8 -4 15 -8 15 -4 0 -14 16 -21 35 -7 19 -17 35 -22 35 -6
0 -7 5 -4 10 3 6 1 10 -6 10 -7 0 -10 3 -6 6 3 3 -3 15 -14 27 -10 11 -19 29
-19 39 0 10 -4 18 -8 18 -5 0 -14 16 -22 35 -8 19 -17 35 -21 35 -4 0 -13 16
-20 34 -7 19 -16 33 -21 30 -4 -3 -8 4 -8 15 0 12 -5 21 -12 21 -6 0 -9 3 -5
6 3 4 1 12 -6 20 -33 37 -37 44 -27 44 8 0 7 5 -2 15 -31 34 -36 43 -31 49 4
3 2 6 -4 6 -6 0 -16 14 -23 30 -7 17 -16 30 -21 30 -5 0 -8 3 -7 8 2 8 -21 54
-32 62 -3 3 -18 28 -32 57 -14 29 -28 50 -31 47 -2 -3 -7 7 -11 21 -4 14 -11
25 -17 25 -6 0 -7 5 -4 10 3 6 2 10 -3 10 -5 0 -21 22 -34 50 -14 27 -28 46
-33 42 -4 -4 -6 0 -3 8 3 8 -5 25 -18 36 -12 12 -20 24 -18 27 3 3 -8 24 -25
48 -17 23 -31 48 -31 56 0 7 -7 16 -15 19 -8 4 -15 12 -15 18 0 7 -8 21 -17
32 -10 11 -19 26 -21 33 -1 7 -9 20 -17 28 -9 8 -12 20 -8 26 3 7 3 9 -2 5 -7
-7 -80 99 -92 135 -3 9 -9 17 -13 17 -4 0 -13 14 -20 30 -7 17 -16 30 -21 30
-5 0 -9 4 -9 9 0 14 -52 91 -61 91 -5 0 -5 7 -2 17 4 10 2 14 -4 10 -10 -6
-27 27 -24 46 1 4 -6 7 -14 7 -8 0 -15 9 -15 20 0 11 -5 20 -11 20 -5 0 -7 5
-4 10 3 6 -1 10 -10 10 -9 0 -14 4 -10 9 3 5 -2 16 -10 24 -8 9 -15 20 -15 26
0 6 -4 11 -8 11 -8 0 -25 30 -32 55 -1 6 -10 15 -20 22 -9 7 -23 26 -30 43 -7
16 -17 30 -23 30 -6 0 -8 3 -4 6 3 4 1 12 -6 20 -29 32 -37 44 -32 44 3 0 -5
15 -19 33 -15 19 -26 39 -26 46 0 7 -4 10 -8 7 -4 -2 -13 8 -20 23 -7 15 -21
37 -31 48 -11 12 -17 24 -14 27 4 3 0 6 -7 6 -7 0 -11 3 -8 6 4 3 -2 15 -13
27 -33 38 -43 52 -63 88 -10 19 -25 41 -32 49 -24 29 -84 122 -84 131 0 5 -4
9 -10 9 -5 0 -10 7 -10 15 0 8 -3 15 -8 15 -4 0 -18 18 -32 40 -14 22 -28 40
-33 40 -4 0 -6 4 -3 8 3 5 -6 20 -20 35 -13 14 -24 31 -24 37 0 5 -4 10 -10
10 -5 0 -10 5 -10 10 0 6 -9 20 -20 32 -11 12 -20 28 -20 35 0 7 -7 13 -16 13
-8 0 -13 4 -9 10 5 8 -9 30 -42 65 -7 8 -13 18 -13 24 0 6 -4 11 -10 11 -5 0
-10 7 -10 15 0 8 -4 15 -9 15 -5 0 -12 8 -15 18 -3 9 -17 29 -31 45 -14 15
-23 27 -20 27 4 0 0 6 -7 14 -7 7 -20 24 -28 36 -8 12 -21 29 -28 36 -7 8 -10
14 -5 14 4 0 3 4 -3 8 -6 4 -25 28 -43 55 -17 26 -36 47 -41 47 -6 0 -10 8
-10 18 0 10 -9 24 -20 32 -11 8 -20 20 -20 27 0 7 -4 13 -10 13 -5 0 -10 5
-10 11 0 6 -6 16 -12 24 -27 28 -59 74 -58 81 1 4 -5 11 -14 16 -9 5 -16 16
-16 24 0 8 -4 12 -10 9 -5 -3 -10 0 -10 7 0 7 -14 29 -30 48 -16 19 -30 41
-30 48 0 7 -4 11 -8 8 -5 -3 -15 7 -23 22 -8 15 -16 29 -19 32 -4 3 -21 26
-40 53 -18 26 -37 47 -42 47 -4 0 -8 6 -8 13 0 7 -9 23 -20 35 -11 12 -20 26
-20 31 0 6 -9 16 -20 23 -11 7 -20 18 -20 25 0 7 -4 13 -10 13 -5 0 -10 5 -10
10 0 6 -9 21 -21 33 -12 12 -32 39 -45 60 -13 20 -29 37 -36 37 -6 0 -9 3 -5
6 6 6 -1 17 -35 55 -10 10 -18 21 -18 24 0 5 -25 37 -47 60 -7 8 -13 17 -13
21 0 3 -10 15 -22 25 -11 11 -17 19 -13 19 4 0 -4 11 -19 25 -14 13 -26 28
-26 32 0 8 -28 43 -77 98 -15 17 -25 30 -23 30 3 0 -5 13 -16 27 -12 15 -25
24 -29 20 -5 -4 -5 -2 -2 5 4 6 -8 27 -26 46 -18 19 -31 41 -28 49 2 7 0 10
-4 6 -8 -8 -37 26 -48 55 -4 10 -11 15 -17 12 -5 -3 -10 0 -10 8 0 7 -13 29
-30 48 -16 19 -34 39 -40 46 -5 7 -10 17 -10 23 0 6 -4 8 -10 5 -5 -3 -10 0
-10 7 0 8 -13 28 -29 45 -16 18 -38 45 -50 61 -29 41 -81 96 -81 86 0 -5 -5
-2 -10 6 -5 8 -10 11 -10 5z m-2573 -9291 c18 -8 33 -19 33 -26 0 -6 3 -8 6
-5 8 8 66 -23 77 -40 4 -7 13 -13 20 -13 15 0 77 -66 69 -74 -3 -3 0 -6 7 -6
7 0 9 -4 6 -10 -3 -5 -1 -10 5 -10 6 0 8 -4 5 -10 -3 -5 -1 -10 5 -10 6 0 9
-4 5 -9 -3 -5 -2 -12 3 -15 5 -3 7 -20 5 -38 -2 -18 -4 -39 -5 -45 -1 -7 -4
-13 -8 -13 -4 0 -17 -21 -29 -46 -13 -25 -29 -48 -36 -50 -13 -5 -29 -40 -26
-57 1 -5 -2 -6 -7 -3 -5 3 -18 -10 -28 -29 -10 -19 -21 -35 -25 -35 -3 0 -14
-16 -25 -35 -10 -19 -22 -35 -27 -35 -4 0 -5 -5 -2 -10 3 -6 -1 -13 -9 -16 -9
-3 -16 -10 -16 -15 0 -8 -22 -39 -46 -63 -24 -23 -54 -46 -54 -40 0 4 -6 1
-14 -5 -8 -6 -28 -9 -45 -6 -20 3 -31 1 -31 -6 0 -8 -4 -9 -13 0 -8 6 -17 8
-20 4 -4 -3 -13 0 -21 6 -8 7 -20 10 -26 6 -5 -3 -10 -1 -10 4 0 6 -5 11 -10
11 -12 0 -17 4 -69 49 -19 17 -37 29 -39 26 -6 -5 -52 50 -52 63 0 6 -5 12
-10 14 -14 4 -23 98 -9 98 5 0 7 4 4 10 -6 10 10 47 32 68 7 7 13 20 13 28 0
8 5 12 10 9 6 -3 10 0 10 8 0 7 9 23 19 34 11 12 17 23 14 27 -3 3 2 8 11 12
9 3 13 10 10 15 -3 5 2 12 10 15 9 3 16 12 16 19 0 7 7 18 15 25 9 7 14 15 11
17 -2 3 9 17 25 32 16 15 26 30 23 33 -5 6 5 19 79 100 51 56 99 69 164 42z
m658 -74 c4 -7 13 -7 24 0 10 5 22 6 27 1 5 -4 28 -14 52 -21 23 -7 42 -18 42
-23 0 -6 3 -7 7 -4 16 17 183 -124 183 -155 0 -8 5 -19 11 -25 9 -9 12 -58 7
-118 -1 -8 -7 -15 -14 -15 -8 0 -11 -6 -8 -15 4 -8 1 -15 -5 -15 -6 0 -11 -7
-11 -15 0 -7 -7 -18 -16 -23 -9 -5 -16 -12 -15 -15 2 -18 -14 -46 -46 -81 -7
-8 -9 -16 -6 -20 4 -3 1 -6 -6 -6 -7 0 -9 -4 -6 -10 3 -5 1 -10 -4 -10 -6 0
-11 -6 -11 -14 0 -8 -7 -16 -15 -20 -8 -3 -15 -12 -15 -21 0 -9 -9 -25 -20
-37 -10 -12 -17 -25 -14 -30 3 -4 1 -8 -5 -8 -5 0 -12 -8 -15 -18 -4 -10 -14
-27 -24 -38 -23 -27 -41 -56 -48 -76 -4 -10 -10 -18 -15 -18 -5 0 -8 -6 -6
-12 1 -7 -4 -12 -10 -11 -7 2 -12 0 -11 -5 1 -4 -4 -17 -11 -30 -15 -27 -51
-66 -51 -54 0 4 -4 1 -8 -6 -12 -18 -66 -27 -56 -10 6 10 5 11 -7 1 -17 -14
-59 -13 -59 0 0 5 -8 3 -17 -4 -9 -8 -14 -9 -10 -3 4 7 -7 14 -32 18 -22 3
-47 14 -57 24 -10 9 -19 16 -21 15 -9 -8 -23 0 -51 27 -18 17 -37 30 -42 30
-6 0 -8 5 -5 10 3 6 -1 10 -10 10 -9 0 -14 4 -11 9 3 5 -1 11 -9 15 -8 3 -15
12 -15 21 0 8 -4 15 -9 15 -13 0 -23 29 -27 78 -2 25 1 40 6 37 6 -3 7 1 4 9
-3 9 -2 16 3 16 5 0 10 10 10 22 1 13 7 24 13 26 5 2 10 10 10 19 0 8 9 28 21
44 11 16 18 29 14 29 -3 0 3 10 14 22 11 11 18 24 16 28 -3 5 2 11 11 14 8 3
12 10 9 16 -3 6 1 13 9 16 9 3 16 13 16 20 0 8 9 24 20 36 10 12 17 24 15 28
-3 5 2 11 11 14 8 3 12 10 9 16 -3 5 -1 10 4 10 6 0 11 7 11 15 0 8 5 15 10
15 6 0 10 6 10 14 0 7 11 25 25 40 13 14 21 26 18 26 -3 0 0 7 7 15 7 8 9 15
5 15 -4 0 3 10 16 23 14 12 25 24 25 27 0 14 40 70 50 70 6 0 17 6 23 14 7 8
23 13 37 10 13 -2 24 0 24 6 0 13 17 13 25 0z m559 -481 c9 8 16 9 16 4 0 -5
15 -10 33 -11 17 -2 34 -7 35 -12 2 -6 8 -10 13 -10 6 0 15 -5 22 -10 48 -41
62 -50 74 -50 8 0 11 -4 8 -10 -3 -5 0 -10 8 -10 8 0 18 -7 21 -16 3 -8 11
-12 17 -8 7 4 9 3 6 -2 -3 -5 8 -20 24 -33 16 -13 26 -27 23 -32 -3 -5 0 -9 5
-9 6 0 10 -3 10 -7 -1 -5 0 -12 1 -18 7 -27 4 -85 -4 -85 -5 0 -7 -3 -3 -6 3
-4 0 -19 -9 -35 -8 -16 -11 -29 -7 -29 5 0 3 -4 -2 -8 -6 -4 -19 -25 -30 -47
-11 -22 -23 -42 -26 -45 -3 -3 -12 -17 -20 -31 -8 -15 -38 -61 -67 -103 -29
-42 -50 -76 -46 -76 4 0 -11 -18 -34 -41 -25 -24 -47 -37 -53 -33 -8 4 -9 3
-5 -4 4 -7 2 -13 -3 -13 -21 -3 -26 -4 -38 -12 -7 -5 -13 -4 -13 1 0 5 -17 8
-37 6 -21 -1 -44 2 -50 8 -9 8 -13 7 -13 -3 -1 -11 -3 -11 -13 1 -7 8 -21 17
-32 18 -36 7 -175 127 -175 153 0 5 -5 9 -11 9 -5 0 -7 5 -4 10 3 6 1 10 -4
10 -6 0 -11 7 -11 15 0 8 -3 15 -8 15 -4 0 -6 20 -4 45 2 25 8 45 13 45 6 0 9
6 7 13 -2 11 43 88 69 115 7 7 13 20 13 28 0 8 5 14 10 14 6 0 10 6 10 14 0 8
7 17 16 20 9 4 14 9 11 12 -8 9 111 186 147 216 17 15 41 28 54 28 12 0 22 6
22 13 0 8 3 8 9 -2 8 -12 12 -12 25 -2z m581 -448 c-2 -5 7 -6 20 -3 14 2 25
0 25 -5 0 -5 16 -15 35 -23 19 -8 35 -17 35 -22 0 -4 7 -8 16 -8 8 0 22 -6 29
-12 8 -7 30 -26 50 -42 34 -27 51 -55 60 -96 2 -8 6 -23 10 -32 4 -11 3 -18
-5 -18 -6 0 -9 -4 -5 -9 3 -5 1 -12 -5 -16 -6 -4 -8 -10 -5 -15 3 -5 1 -11 -5
-15 -6 -4 -8 -11 -5 -16 4 -5 2 -9 -3 -9 -5 0 -17 -18 -27 -40 -10 -22 -22
-37 -28 -33 -6 4 -8 0 -4 -9 3 -9 -3 -25 -14 -36 -10 -12 -19 -26 -19 -32 0
-5 -4 -10 -10 -10 -5 0 -10 -7 -10 -15 0 -9 -7 -18 -15 -21 -8 -4 -13 -10 -10
-14 3 -5 -6 -17 -20 -28 -13 -11 -21 -22 -18 -26 3 -3 -3 -6 -15 -6 -12 0 -22
-5 -22 -12 0 -6 -3 -9 -6 -6 -3 4 -19 2 -35 -2 -16 -5 -29 -5 -29 0 0 4 -9 6
-20 3 -11 -3 -26 -1 -33 5 -6 5 -20 8 -30 7 -9 -2 -15 0 -12 4 2 5 -8 14 -23
22 -34 17 -78 60 -74 72 1 5 -1 6 -6 3 -14 -9 -112 90 -112 113 0 12 -4 21 -9
21 -11 0 28 81 44 92 6 4 6 8 1 8 -5 0 -1 9 8 19 10 11 15 25 10 32 -4 8 -3
10 4 5 7 -4 17 3 24 18 6 14 15 26 20 26 5 0 6 5 3 10 -3 6 -2 10 4 10 5 0 15
16 22 34 7 19 16 33 21 30 4 -3 8 3 8 14 0 10 11 25 25 32 14 7 25 17 25 22 0
4 7 8 15 8 8 0 15 5 15 11 0 6 7 9 15 5 8 -3 15 -2 15 3 0 4 14 7 30 6 17 -1
30 2 30 7 0 5 5 6 10 3 6 -4 8 -10 5 -14z"/>
</g>
</svg>
